solid ascii
 facet normal 0.221582 0.0917822 0.970813
  outer loop
   vertex 0.867767 0 1.80194
   vertex 0.613604 0.613604 1.80194
   vertex 0 0 2
  endloop
 endfacet
 facet normal 0.0917822 0.221582 0.970813
  outer loop
   vertex 0.613604 0.613604 1.80194
   vertex 5.31354e-17 0.867767 1.80194
   vertex 0 0 2
  endloop
 endfacet
 facet normal -0.0917822 0.221582 0.970813
  outer loop
   vertex 5.31354e-17 0.867767 1.80194
   vertex -0.613604 0.613604 1.80194
   vertex 0 0 2
  endloop
 endfacet
 facet normal -0.221582 0.0917822 0.970813
  outer loop
   vertex -0.613604 0.613604 1.80194
   vertex -0.867767 1.06271e-16 1.80194
   vertex 0 0 2
  endloop
 endfacet
 facet normal -0.221582 -0.0917822 0.970813
  outer loop
   vertex -0.867767 1.06271e-16 1.80194
   vertex -0.613604 -0.613604 1.80194
   vertex 0 0 2
  endloop
 endfacet
 facet normal -0.0917822 -0.221582 0.970813
  outer loop
   vertex -0.613604 -0.613604 1.80194
   vertex -1.59406e-16 -0.867767 1.80194
   vertex 0 0 2
  endloop
 endfacet
 facet normal 0.0917822 -0.221582 0.970813
  outer loop
   vertex -1.59406e-16 -0.867767 1.80194
   vertex 0.613604 -0.613604 1.80194
   vertex 0 0 2
  endloop
 endfacet
 facet normal 0.221582 -0.0917822 0.970813
  outer loop
   vertex 0.613604 -0.613604 1.80194
   vertex 0.867767 0 1.80194
   vertex 0 0 2
  endloop
 endfacet
 facet normal 0.221582 0.0917822 -0.970813
  outer loop
   vertex 0.867767 0 -1.80194
   vertex 0 0 -2
   vertex 0.613604 0.613604 -1.80194
  endloop
 endfacet
 facet normal 0.0917822 0.221582 -0.970813
  outer loop
   vertex 0.613604 0.613604 -1.80194
   vertex 0 0 -2
   vertex 5.31354e-17 0.867767 -1.80194
  endloop
 endfacet
 facet normal -0.0917822 0.221582 -0.970813
  outer loop
   vertex 5.31354e-17 0.867767 -1.80194
   vertex 0 0 -2
   vertex -0.613604 0.613604 -1.80194
  endloop
 endfacet
 facet normal -0.221582 0.0917822 -0.970813
  outer loop
   vertex -0.613604 0.613604 -1.80194
   vertex 0 0 -2
   vertex -0.867767 1.06271e-16 -1.80194
  endloop
 endfacet
 facet normal -0.221582 -0.0917822 -0.970813
  outer loop
   vertex -0.867767 1.06271e-16 -1.80194
   vertex 0 0 -2
   vertex -0.613604 -0.613604 -1.80194
  endloop
 endfacet
 facet normal -0.0917822 -0.221582 -0.970813
  outer loop
   vertex -0.613604 -0.613604 -1.80194
   vertex 0 0 -2
   vertex -1.59406e-16 -0.867767 -1.80194
  endloop
 endfacet
 facet normal 0.0917822 -0.221582 -0.970813
  outer loop
   vertex -1.59406e-16 -0.867767 -1.80194
   vertex 0 0 -2
   vertex 0.613604 -0.613604 -1.80194
  endloop
 endfacet
 facet normal 0.221582 -0.0917822 -0.970813
  outer loop
   vertex 0.613604 -0.613604 -1.80194
   vertex 0 0 -2
   vertex 0.867767 0 -1.80194
  endloop
 endfacet
 facet normal 0.603683 0.250054 0.756994
  outer loop
   vertex 0.867767 0 1.80194
   vertex 1.56366 0 1.24698
   vertex 1.10568 1.10568 1.24698
  endloop
 endfacet
 facet normal 0.603683 0.250054 0.756994
  outer loop
   vertex 0.867767 0 1.80194
   vertex 1.10568 1.10568 1.24698
   vertex 0.613604 0.613604 1.80194
  endloop
 endfacet
 facet normal 0.844104 0.349639 0.406499
  outer loop
   vertex 1.56366 0 1.24698
   vertex 1.94986 0 0.445042
   vertex 1.37876 1.37876 0.445042
  endloop
 endfacet
 facet normal 0.844104 0.349639 0.406499
  outer loop
   vertex 1.56366 0 1.24698
   vertex 1.37876 1.37876 0.445042
   vertex 1.10568 1.10568 1.24698
  endloop
 endfacet
 facet normal 0.92388 0.382683 -0
  outer loop
   vertex 1.94986 0 0.445042
   vertex 1.94986 0 -0.445042
   vertex 1.37876 1.37876 -0.445042
  endloop
 endfacet
 facet normal 0.92388 0.382683 -0
  outer loop
   vertex 1.94986 0 0.445042
   vertex 1.37876 1.37876 -0.445042
   vertex 1.37876 1.37876 0.445042
  endloop
 endfacet
 facet normal 0.844104 0.349639 -0.406499
  outer loop
   vertex 1.94986 0 -0.445042
   vertex 1.56366 0 -1.24698
   vertex 1.10568 1.10568 -1.24698
  endloop
 endfacet
 facet normal 0.844104 0.349639 -0.406499
  outer loop
   vertex 1.94986 0 -0.445042
   vertex 1.10568 1.10568 -1.24698
   vertex 1.37876 1.37876 -0.445042
  endloop
 endfacet
 facet normal 0.603683 0.250054 -0.756994
  outer loop
   vertex 1.56366 0 -1.24698
   vertex 0.867767 0 -1.80194
   vertex 0.613604 0.613604 -1.80194
  endloop
 endfacet
 facet normal 0.603683 0.250054 -0.756994
  outer loop
   vertex 1.56366 0 -1.24698
   vertex 0.613604 0.613604 -1.80194
   vertex 1.10568 1.10568 -1.24698
  endloop
 endfacet
 facet normal 0.250054 0.603683 0.756994
  outer loop
   vertex 0.613604 0.613604 1.80194
   vertex 1.10568 1.10568 1.24698
   vertex 9.57467e-17 1.56366 1.24698
  endloop
 endfacet
 facet normal 0.250054 0.603683 0.756994
  outer loop
   vertex 0.613604 0.613604 1.80194
   vertex 9.57467e-17 1.56366 1.24698
   vertex 5.31354e-17 0.867767 1.80194
  endloop
 endfacet
 facet normal 0.349639 0.844104 0.406499
  outer loop
   vertex 1.10568 1.10568 1.24698
   vertex 1.37876 1.37876 0.445042
   vertex 1.19394e-16 1.94986 0.445042
  endloop
 endfacet
 facet normal 0.349639 0.844104 0.406499
  outer loop
   vertex 1.10568 1.10568 1.24698
   vertex 1.19394e-16 1.94986 0.445042
   vertex 9.57467e-17 1.56366 1.24698
  endloop
 endfacet
 facet normal 0.382683 0.92388 -0
  outer loop
   vertex 1.37876 1.37876 0.445042
   vertex 1.37876 1.37876 -0.445042
   vertex 1.19394e-16 1.94986 -0.445042
  endloop
 endfacet
 facet normal 0.382683 0.92388 -0
  outer loop
   vertex 1.37876 1.37876 0.445042
   vertex 1.19394e-16 1.94986 -0.445042
   vertex 1.19394e-16 1.94986 0.445042
  endloop
 endfacet
 facet normal 0.349639 0.844104 -0.406499
  outer loop
   vertex 1.37876 1.37876 -0.445042
   vertex 1.10568 1.10568 -1.24698
   vertex 9.57467e-17 1.56366 -1.24698
  endloop
 endfacet
 facet normal 0.349639 0.844104 -0.406499
  outer loop
   vertex 1.37876 1.37876 -0.445042
   vertex 9.57467e-17 1.56366 -1.24698
   vertex 1.19394e-16 1.94986 -0.445042
  endloop
 endfacet
 facet normal 0.250054 0.603683 -0.756994
  outer loop
   vertex 1.10568 1.10568 -1.24698
   vertex 0.613604 0.613604 -1.80194
   vertex 5.31354e-17 0.867767 -1.80194
  endloop
 endfacet
 facet normal 0.250054 0.603683 -0.756994
  outer loop
   vertex 1.10568 1.10568 -1.24698
   vertex 5.31354e-17 0.867767 -1.80194
   vertex 9.57467e-17 1.56366 -1.24698
  endloop
 endfacet
 facet normal -0.250054 0.603683 0.756994
  outer loop
   vertex 5.31354e-17 0.867767 1.80194
   vertex 9.57467e-17 1.56366 1.24698
   vertex -1.10568 1.10568 1.24698
  endloop
 endfacet
 facet normal -0.250054 0.603683 0.756994
  outer loop
   vertex 5.31354e-17 0.867767 1.80194
   vertex -1.10568 1.10568 1.24698
   vertex -0.613604 0.613604 1.80194
  endloop
 endfacet
 facet normal -0.349639 0.844104 0.406499
  outer loop
   vertex 9.57467e-17 1.56366 1.24698
   vertex 1.19394e-16 1.94986 0.445042
   vertex -1.37876 1.37876 0.445042
  endloop
 endfacet
 facet normal -0.349639 0.844104 0.406499
  outer loop
   vertex 9.57467e-17 1.56366 1.24698
   vertex -1.37876 1.37876 0.445042
   vertex -1.10568 1.10568 1.24698
  endloop
 endfacet
 facet normal -0.382683 0.92388 0
  outer loop
   vertex 1.19394e-16 1.94986 0.445042
   vertex 1.19394e-16 1.94986 -0.445042
   vertex -1.37876 1.37876 -0.445042
  endloop
 endfacet
 facet normal -0.382683 0.92388 0
  outer loop
   vertex 1.19394e-16 1.94986 0.445042
   vertex -1.37876 1.37876 -0.445042
   vertex -1.37876 1.37876 0.445042
  endloop
 endfacet
 facet normal -0.349639 0.844104 -0.406499
  outer loop
   vertex 1.19394e-16 1.94986 -0.445042
   vertex 9.57467e-17 1.56366 -1.24698
   vertex -1.10568 1.10568 -1.24698
  endloop
 endfacet
 facet normal -0.349639 0.844104 -0.406499
  outer loop
   vertex 1.19394e-16 1.94986 -0.445042
   vertex -1.10568 1.10568 -1.24698
   vertex -1.37876 1.37876 -0.445042
  endloop
 endfacet
 facet normal -0.250054 0.603683 -0.756994
  outer loop
   vertex 9.57467e-17 1.56366 -1.24698
   vertex 5.31354e-17 0.867767 -1.80194
   vertex -0.613604 0.613604 -1.80194
  endloop
 endfacet
 facet normal -0.250054 0.603683 -0.756994
  outer loop
   vertex 9.57467e-17 1.56366 -1.24698
   vertex -0.613604 0.613604 -1.80194
   vertex -1.10568 1.10568 -1.24698
  endloop
 endfacet
 facet normal -0.603683 0.250054 0.756994
  outer loop
   vertex -0.613604 0.613604 1.80194
   vertex -1.10568 1.10568 1.24698
   vertex -1.56366 1.91493e-16 1.24698
  endloop
 endfacet
 facet normal -0.603683 0.250054 0.756994
  outer loop
   vertex -0.613604 0.613604 1.80194
   vertex -1.56366 1.91493e-16 1.24698
   vertex -0.867767 1.06271e-16 1.80194
  endloop
 endfacet
 facet normal -0.844104 0.349639 0.406499
  outer loop
   vertex -1.10568 1.10568 1.24698
   vertex -1.37876 1.37876 0.445042
   vertex -1.94986 2.38788e-16 0.445042
  endloop
 endfacet
 facet normal -0.844104 0.349639 0.406499
  outer loop
   vertex -1.10568 1.10568 1.24698
   vertex -1.94986 2.38788e-16 0.445042
   vertex -1.56366 1.91493e-16 1.24698
  endloop
 endfacet
 facet normal -0.92388 0.382683 0
  outer loop
   vertex -1.37876 1.37876 0.445042
   vertex -1.37876 1.37876 -0.445042
   vertex -1.94986 2.38788e-16 -0.445042
  endloop
 endfacet
 facet normal -0.92388 0.382683 0
  outer loop
   vertex -1.37876 1.37876 0.445042
   vertex -1.94986 2.38788e-16 -0.445042
   vertex -1.94986 2.38788e-16 0.445042
  endloop
 endfacet
 facet normal -0.844104 0.349639 -0.406499
  outer loop
   vertex -1.37876 1.37876 -0.445042
   vertex -1.10568 1.10568 -1.24698
   vertex -1.56366 1.91493e-16 -1.24698
  endloop
 endfacet
 facet normal -0.844104 0.349639 -0.406499
  outer loop
   vertex -1.37876 1.37876 -0.445042
   vertex -1.56366 1.91493e-16 -1.24698
   vertex -1.94986 2.38788e-16 -0.445042
  endloop
 endfacet
 facet normal -0.603683 0.250054 -0.756994
  outer loop
   vertex -1.10568 1.10568 -1.24698
   vertex -0.613604 0.613604 -1.80194
   vertex -0.867767 1.06271e-16 -1.80194
  endloop
 endfacet
 facet normal -0.603683 0.250054 -0.756994
  outer loop
   vertex -1.10568 1.10568 -1.24698
   vertex -0.867767 1.06271e-16 -1.80194
   vertex -1.56366 1.91493e-16 -1.24698
  endloop
 endfacet
 facet normal -0.603683 -0.250054 0.756994
  outer loop
   vertex -0.867767 1.06271e-16 1.80194
   vertex -1.56366 1.91493e-16 1.24698
   vertex -1.10568 -1.10568 1.24698
  endloop
 endfacet
 facet normal -0.603683 -0.250054 0.756994
  outer loop
   vertex -0.867767 1.06271e-16 1.80194
   vertex -1.10568 -1.10568 1.24698
   vertex -0.613604 -0.613604 1.80194
  endloop
 endfacet
 facet normal -0.844104 -0.349639 0.406499
  outer loop
   vertex -1.56366 1.91493e-16 1.24698
   vertex -1.94986 2.38788e-16 0.445042
   vertex -1.37876 -1.37876 0.445042
  endloop
 endfacet
 facet normal -0.844104 -0.349639 0.406499
  outer loop
   vertex -1.56366 1.91493e-16 1.24698
   vertex -1.37876 -1.37876 0.445042
   vertex -1.10568 -1.10568 1.24698
  endloop
 endfacet
 facet normal -0.92388 -0.382683 0
  outer loop
   vertex -1.94986 2.38788e-16 0.445042
   vertex -1.94986 2.38788e-16 -0.445042
   vertex -1.37876 -1.37876 -0.445042
  endloop
 endfacet
 facet normal -0.92388 -0.382683 0
  outer loop
   vertex -1.94986 2.38788e-16 0.445042
   vertex -1.37876 -1.37876 -0.445042
   vertex -1.37876 -1.37876 0.445042
  endloop
 endfacet
 facet normal -0.844104 -0.349639 -0.406499
  outer loop
   vertex -1.94986 2.38788e-16 -0.445042
   vertex -1.56366 1.91493e-16 -1.24698
   vertex -1.10568 -1.10568 -1.24698
  endloop
 endfacet
 facet normal -0.844104 -0.349639 -0.406499
  outer loop
   vertex -1.94986 2.38788e-16 -0.445042
   vertex -1.10568 -1.10568 -1.24698
   vertex -1.37876 -1.37876 -0.445042
  endloop
 endfacet
 facet normal -0.603683 -0.250054 -0.756994
  outer loop
   vertex -1.56366 1.91493e-16 -1.24698
   vertex -0.867767 1.06271e-16 -1.80194
   vertex -0.613604 -0.613604 -1.80194
  endloop
 endfacet
 facet normal -0.603683 -0.250054 -0.756994
  outer loop
   vertex -1.56366 1.91493e-16 -1.24698
   vertex -0.613604 -0.613604 -1.80194
   vertex -1.10568 -1.10568 -1.24698
  endloop
 endfacet
 facet normal -0.250054 -0.603683 0.756994
  outer loop
   vertex -0.613604 -0.613604 1.80194
   vertex -1.10568 -1.10568 1.24698
   vertex -2.8724e-16 -1.56366 1.24698
  endloop
 endfacet
 facet normal -0.250054 -0.603683 0.756994
  outer loop
   vertex -0.613604 -0.613604 1.80194
   vertex -2.8724e-16 -1.56366 1.24698
   vertex -1.59406e-16 -0.867767 1.80194
  endloop
 endfacet
 facet normal -0.349639 -0.844104 0.406499
  outer loop
   vertex -1.10568 -1.10568 1.24698
   vertex -1.37876 -1.37876 0.445042
   vertex -3.58183e-16 -1.94986 0.445042
  endloop
 endfacet
 facet normal -0.349639 -0.844104 0.406499
  outer loop
   vertex -1.10568 -1.10568 1.24698
   vertex -3.58183e-16 -1.94986 0.445042
   vertex -2.8724e-16 -1.56366 1.24698
  endloop
 endfacet
 facet normal -0.382683 -0.92388 0
  outer loop
   vertex -1.37876 -1.37876 0.445042
   vertex -1.37876 -1.37876 -0.445042
   vertex -3.58183e-16 -1.94986 -0.445042
  endloop
 endfacet
 facet normal -0.382683 -0.92388 0
  outer loop
   vertex -1.37876 -1.37876 0.445042
   vertex -3.58183e-16 -1.94986 -0.445042
   vertex -3.58183e-16 -1.94986 0.445042
  endloop
 endfacet
 facet normal -0.349639 -0.844104 -0.406499
  outer loop
   vertex -1.37876 -1.37876 -0.445042
   vertex -1.10568 -1.10568 -1.24698
   vertex -2.8724e-16 -1.56366 -1.24698
  endloop
 endfacet
 facet normal -0.349639 -0.844104 -0.406499
  outer loop
   vertex -1.37876 -1.37876 -0.445042
   vertex -2.8724e-16 -1.56366 -1.24698
   vertex -3.58183e-16 -1.94986 -0.445042
  endloop
 endfacet
 facet normal -0.250054 -0.603683 -0.756994
  outer loop
   vertex -1.10568 -1.10568 -1.24698
   vertex -0.613604 -0.613604 -1.80194
   vertex -1.59406e-16 -0.867767 -1.80194
  endloop
 endfacet
 facet normal -0.250054 -0.603683 -0.756994
  outer loop
   vertex -1.10568 -1.10568 -1.24698
   vertex -1.59406e-16 -0.867767 -1.80194
   vertex -2.8724e-16 -1.56366 -1.24698
  endloop
 endfacet
 facet normal 0.250054 -0.603683 0.756994
  outer loop
   vertex -1.59406e-16 -0.867767 1.80194
   vertex -2.8724e-16 -1.56366 1.24698
   vertex 1.10568 -1.10568 1.24698
  endloop
 endfacet
 facet normal 0.250054 -0.603683 0.756994
  outer loop
   vertex -1.59406e-16 -0.867767 1.80194
   vertex 1.10568 -1.10568 1.24698
   vertex 0.613604 -0.613604 1.80194
  endloop
 endfacet
 facet normal 0.349639 -0.844104 0.406499
  outer loop
   vertex -2.8724e-16 -1.56366 1.24698
   vertex -3.58183e-16 -1.94986 0.445042
   vertex 1.37876 -1.37876 0.445042
  endloop
 endfacet
 facet normal 0.349639 -0.844104 0.406499
  outer loop
   vertex -2.8724e-16 -1.56366 1.24698
   vertex 1.37876 -1.37876 0.445042
   vertex 1.10568 -1.10568 1.24698
  endloop
 endfacet
 facet normal 0.382683 -0.92388 0
  outer loop
   vertex -3.58183e-16 -1.94986 0.445042
   vertex -3.58183e-16 -1.94986 -0.445042
   vertex 1.37876 -1.37876 -0.445042
  endloop
 endfacet
 facet normal 0.382683 -0.92388 0
  outer loop
   vertex -3.58183e-16 -1.94986 0.445042
   vertex 1.37876 -1.37876 -0.445042
   vertex 1.37876 -1.37876 0.445042
  endloop
 endfacet
 facet normal 0.349639 -0.844104 -0.406499
  outer loop
   vertex -3.58183e-16 -1.94986 -0.445042
   vertex -2.8724e-16 -1.56366 -1.24698
   vertex 1.10568 -1.10568 -1.24698
  endloop
 endfacet
 facet normal 0.349639 -0.844104 -0.406499
  outer loop
   vertex -3.58183e-16 -1.94986 -0.445042
   vertex 1.10568 -1.10568 -1.24698
   vertex 1.37876 -1.37876 -0.445042
  endloop
 endfacet
 facet normal 0.250054 -0.603683 -0.756994
  outer loop
   vertex -2.8724e-16 -1.56366 -1.24698
   vertex -1.59406e-16 -0.867767 -1.80194
   vertex 0.613604 -0.613604 -1.80194
  endloop
 endfacet
 facet normal 0.250054 -0.603683 -0.756994
  outer loop
   vertex -2.8724e-16 -1.56366 -1.24698
   vertex 0.613604 -0.613604 -1.80194
   vertex 1.10568 -1.10568 -1.24698
  endloop
 endfacet
 facet normal 0.603683 -0.250054 0.756994
  outer loop
   vertex 0.613604 -0.613604 1.80194
   vertex 1.10568 -1.10568 1.24698
   vertex 1.56366 0 1.24698
  endloop
 endfacet
 facet normal 0.603683 -0.250054 0.756994
  outer loop
   vertex 0.613604 -0.613604 1.80194
   vertex 1.56366 0 1.24698
   vertex 0.867767 0 1.80194
  endloop
 endfacet
 facet normal 0.844104 -0.349639 0.406499
  outer loop
   vertex 1.10568 -1.10568 1.24698
   vertex 1.37876 -1.37876 0.445042
   vertex 1.94986 0 0.445042
  endloop
 endfacet
 facet normal 0.844104 -0.349639 0.406499
  outer loop
   vertex 1.10568 -1.10568 1.24698
   vertex 1.94986 0 0.445042
   vertex 1.56366 0 1.24698
  endloop
 endfacet
 facet normal 0.92388 -0.382683 0
  outer loop
   vertex 1.37876 -1.37876 0.445042
   vertex 1.37876 -1.37876 -0.445042
   vertex 1.94986 0 -0.445042
  endloop
 endfacet
 facet normal 0.92388 -0.382683 0
  outer loop
   vertex 1.37876 -1.37876 0.445042
   vertex 1.94986 0 -0.445042
   vertex 1.94986 0 0.445042
  endloop
 endfacet
 facet normal 0.844104 -0.349639 -0.406499
  outer loop
   vertex 1.37876 -1.37876 -0.445042
   vertex 1.10568 -1.10568 -1.24698
   vertex 1.56366 0 -1.24698
  endloop
 endfacet
 facet normal 0.844104 -0.349639 -0.406499
  outer loop
   vertex 1.37876 -1.37876 -0.445042
   vertex 1.56366 0 -1.24698
   vertex 1.94986 0 -0.445042
  endloop
 endfacet
 facet normal 0.603683 -0.250054 -0.756994
  outer loop
   vertex 1.10568 -1.10568 -1.24698
   vertex 0.613604 -0.613604 -1.80194
   vertex 0.867767 0 -1.80194
  endloop
 endfacet
 facet normal 0.603683 -0.250054 -0.756994
  outer loop
   vertex 1.10568 -1.10568 -1.24698
   vertex 0.867767 0 -1.80194
   vertex 1.56366 0 -1.24698
  endloop
 endfacet
endsolid
